<svg width="314" height="196" viewBox="0 0 314 196" fill="none" xmlns="http://www.w3.org/2000/svg">
<path d="M154.757 81.76L81.8643 13.44" stroke="#F6F5F5" stroke-width="14" stroke-linecap="round"/>
<path d="M81.8643 13.44L7.84998 81.76" stroke="#F6F5F5" stroke-width="14" stroke-linecap="round"/>
<path d="M7.84998 81.76V187.04" stroke="#F6F5F5" stroke-width="14" stroke-linecap="round"/>
<path d="M7.84998 187.6H136.254" stroke="#F6F5F5" stroke-width="14" stroke-linecap="round"/>
<path d="M122.236 0L143.543 12.451V61.6H122.236V0Z" fill="#F6F5F5"/>
<path d="M59.7677 118.684V138.468H53.4697V124.651H47.1718V118.684H59.7677ZM59.7677 135.672C61.9208 139.22 66.0118 140.779 71.61 140.995C77.9079 141.263 90.127 141.102 97.3938 140.511C96.6941 142.016 95.6175 145.134 95.3484 147.069C88.8351 147.392 77.9617 147.499 71.5023 147.231C64.8814 146.962 60.4136 145.403 56.9148 141.21C54.5463 143.306 52.124 145.349 49.2173 147.715L46.0414 140.995C48.4637 139.489 51.3704 137.608 53.8465 135.672H59.7677ZM47.2794 102.825L52.0702 98.9542C55.2999 101.212 59.2294 104.599 61.1134 107.126L55.9458 111.373C54.331 108.846 50.4553 105.244 47.2794 102.825ZM69.7798 115.62V120.297H87.7047V115.62H69.7798ZM63.8048 110.674H94.0026V125.189H63.8048V110.674ZM62.1361 102.395H95.8328V107.771H62.1361V102.395ZM75.4318 97.7715H81.6759V139.543H75.4318V97.7715ZM73.7093 123.523L78.3924 125.189C75.378 130.726 70.1566 135.941 64.7199 138.683C63.8586 137.178 61.9746 134.92 60.6289 133.791C65.7426 131.748 71.0178 127.662 73.7093 123.523ZM82.4295 123.469C85.5516 127.447 91.4189 131.425 96.6402 133.468C95.1869 134.705 93.249 136.963 92.2801 138.522C87.0588 135.78 81.3529 130.458 78.0156 125.35L82.4295 123.469ZM130.875 116.48H145.84V122.662H130.875V116.48ZM127.753 116.48H134.159V138.898C134.159 141.156 134.482 141.478 136.581 141.478C137.496 141.478 141.479 141.478 142.61 141.478C144.655 141.478 145.032 140.188 145.301 132.984C146.701 134.059 149.446 135.188 151.169 135.619C150.469 144.758 148.8 147.499 143.148 147.499C141.856 147.499 136.85 147.499 135.612 147.499C129.637 147.499 127.753 145.618 127.753 138.952V116.48ZM127.538 100.191H149.069V125.995H142.825V106.373H127.538V100.191ZM101.915 109.706H124.523V147.123H119.41V115.028H106.868V147.876H101.915V109.706ZM104.607 131.318H121.832V135.78H104.607V131.318ZM104.607 139.489H121.832V144.489H104.607V139.489ZM100.947 99.6531H125.6V105.352H100.947V99.6531ZM108.16 100.943H112.412V113.899H108.16V100.943ZM114.565 100.943H118.871V113.899H114.565V100.943ZM109.236 113.846H112.197V119.275C112.197 122.34 111.658 126.318 109.128 129.114C108.644 128.522 107.46 127.447 106.76 127.071C108.967 124.705 109.236 121.748 109.236 119.222V113.846ZM114.027 113.846H117.041V123.738C117.041 124.436 117.095 124.544 117.472 124.544C117.633 124.544 118.225 124.544 118.387 124.544C118.925 124.544 119.033 124.49 119.141 124.329C119.733 124.867 120.971 125.297 121.886 125.565C121.509 127.071 120.594 127.662 118.925 127.662C118.495 127.662 117.526 127.662 117.095 127.662C114.727 127.662 114.027 126.963 114.027 123.791V113.846ZM160.266 108.255H166.617V120.404C166.617 128.63 165.541 140.296 159.135 147.607C158.005 146.532 155.206 144.704 153.591 144.059C159.674 137.285 160.266 127.501 160.266 120.351V108.255ZM163.603 108.255H199.022V120.996H163.603V116.319H192.67V112.932H163.603V108.255ZM156.713 100.191H202.306V105.943H156.713V100.191ZM163.119 124.275H203.651V129.329H163.119V124.275ZM177.868 132.393H193.962V137.285H177.868V132.393ZM178.621 120.404H185.027V126.856H178.621V120.404ZM192.617 132.393H199.022C199.022 132.393 198.968 133.898 198.861 134.597C198.322 141.693 197.569 145.027 196.223 146.478C195.039 147.661 193.639 148.037 191.971 148.198C190.463 148.36 187.718 148.36 184.811 148.252C184.704 146.639 184.058 144.381 183.143 142.93C185.565 143.145 187.987 143.199 189.01 143.199C189.871 143.199 190.356 143.091 190.894 142.661C191.648 141.962 192.186 139.328 192.617 133.146V132.393ZM175.607 127.124H182.012C181.097 137.124 178.621 144.274 165.756 148.198C165.164 146.693 163.549 144.381 162.257 143.199C173.346 140.242 174.853 134.758 175.607 127.124ZM213.717 100.191H220.231V115.781C220.231 125.243 219.369 139.328 213.664 148.198C212.426 147.123 209.573 145.51 207.904 144.865C213.287 136.586 213.717 124.383 213.717 115.781V100.191ZM217.324 100.191H254.842V113.953H217.324V108.739H248.329V105.405H217.324V100.191ZM219.046 116.319H256.242V121.372H219.046V116.319ZM221.63 133.038H253.604V138.145H221.63V133.038ZM217.97 141.855H257.48V146.908H217.97V141.855ZM234.334 129.006H240.632V145.295H234.334V129.006ZM220.554 125.458C228.09 125.297 239.717 124.974 250.698 124.544L250.536 129.221C239.878 129.759 228.574 130.189 220.823 130.458L220.554 125.458ZM230.35 117.448L236.918 119.598C234.549 122.985 232.019 126.641 230.027 129.006L225.021 127.017C226.905 124.436 229.166 120.404 230.35 117.448ZM241.008 122.77L245.961 119.759C249.621 122.232 254.412 125.995 256.673 128.683L251.344 132.017C249.244 129.382 244.723 125.458 241.008 122.77ZM293.653 119.383H299.09V125.243H293.653V119.383ZM299.251 106.588L304.149 108.04C302.911 110.566 301.781 113.416 300.866 115.243L297.205 114.007C297.959 111.91 298.874 108.792 299.251 106.588ZM289.239 108.255L293.061 106.911C294.137 109.061 294.999 111.91 295.268 113.738L291.123 115.243C290.961 113.362 290.154 110.405 289.239 108.255ZM281.972 100.029H307.11V105.62H287.732V148.306H281.972V100.029ZM305.172 100.029H310.986V141.855C310.986 144.758 310.447 146.263 308.671 147.231C306.841 148.091 304.257 148.252 300.489 148.252C300.328 146.747 299.52 144.274 298.767 142.769C300.973 142.876 303.396 142.876 304.149 142.876C304.903 142.822 305.172 142.554 305.172 141.801V100.029ZM289.077 114.76H303.719V119.544H289.077V114.76ZM288.916 123.791H303.826V128.63H288.916V123.791ZM290.692 126.318H296.075V133.414C296.075 134.705 296.183 135.135 296.883 135.135C297.528 135.135 299.843 135.135 300.489 135.135C301.243 135.135 302.535 135.027 303.234 134.812C303.342 136.21 303.503 138.575 303.665 139.812C302.858 140.134 301.727 140.188 300.543 140.188C299.843 140.188 297.528 140.188 296.936 140.188C291.769 140.188 290.692 138.414 290.692 133.361V126.318ZM269.807 97.7715L275.405 99.7068C273.198 103.9 270.722 108.685 268.676 111.695L264.37 109.921C266.254 106.696 268.569 101.481 269.807 97.7715ZM275.889 104.115L281.111 106.534C277.181 112.555 271.96 120.028 267.815 124.651L264.101 122.555C268.138 117.716 273.036 109.867 275.889 104.115ZM261.463 110.298L264.639 105.997C267.438 108.523 270.722 112.018 272.014 114.545L268.515 119.491C267.331 116.856 264.155 113.039 261.463 110.298ZM274.059 117.018L278.527 115.136C280.68 118.792 282.726 123.523 283.372 126.587L278.527 128.791C277.935 125.673 276.051 120.727 274.059 117.018ZM261.302 121.318C266.146 121.05 273.09 120.673 279.819 120.243L279.873 125.512C273.575 125.995 267.008 126.479 262.002 126.856L261.302 121.318ZM275.513 130.511L280.034 129.114C281.326 132.124 282.403 136.049 282.779 138.629L277.989 140.188C277.72 137.554 276.697 133.576 275.513 130.511ZM263.616 129.329L268.784 130.189C268.246 135.35 267.115 140.672 265.554 144.113C264.478 143.414 262.109 142.392 260.871 141.855C262.378 138.683 263.186 133.844 263.616 129.329ZM269.538 124.168H275.082V148.198H269.538V124.168Z" fill="#004CBD"/>
<path d="M45.862 159.846H61.8311V162.068H45.862V159.846ZM55.0667 160.742C56.1432 164.846 58.422 168.251 62.2259 169.756C61.6876 170.24 60.9699 171.172 60.611 171.799C56.5021 169.882 54.2592 166.172 52.8956 161.244L55.0667 160.742ZM52.5905 155.026H54.959C54.8693 160.492 54.8334 168.09 47.1359 171.799C46.795 171.208 46.1311 170.437 45.5031 169.971C52.8597 166.692 52.5367 159.882 52.5905 155.026ZM74.8038 156.746H88.4763V158.932H74.8038V156.746ZM76.0419 162.516H87.0408V164.685H76.0419V162.516ZM73.7811 168.573H89.4272V170.778H73.7811V168.573ZM105.396 162.015V168.609H103.351V164.004H101.054V162.015H105.396ZM105.396 167.767C106.114 168.968 107.352 169.469 109.2 169.541C111.335 169.649 115.606 169.595 118.082 169.398C117.849 169.882 117.526 170.867 117.418 171.494C115.193 171.602 111.371 171.638 109.164 171.53C107.011 171.441 105.576 170.921 104.499 169.541C103.674 170.24 102.831 170.939 101.808 171.692L100.821 169.559C101.664 169.075 102.669 168.43 103.53 167.767H105.396ZM101.305 156.782L102.795 155.402C103.907 156.155 105.307 157.32 105.953 158.18L104.338 159.721C103.764 158.861 102.418 157.606 101.305 156.782ZM108.572 158.502L109.936 157.356C111.533 157.911 113.794 158.879 115.014 159.578L113.542 160.85C112.448 160.169 110.223 159.148 108.572 158.502ZM106.939 159.524H116.072V161.083H108.967V168.806H106.939V159.524ZM115.068 159.524H117.113V166.943C117.113 167.821 116.97 168.269 116.377 168.556C115.821 168.86 115.032 168.86 113.955 168.86C113.883 168.34 113.65 167.642 113.417 167.176C113.991 167.194 114.619 167.194 114.798 167.194C115.014 167.194 115.068 167.122 115.068 166.925V159.524ZM107.101 155.617H115.66V157.248H107.101V155.617ZM108.07 162.051H115.767V163.538H108.07V162.051ZM108.07 164.559H115.767V166.118H108.07V164.559ZM111.03 160.259H112.95V168.735H111.03V160.259ZM114.888 155.617H115.373L115.803 155.51L117.077 156.549C115.803 157.732 114.027 159.004 112.376 159.793C112.125 159.434 111.605 158.879 111.3 158.592C112.645 157.947 114.206 156.818 114.888 155.994V155.617ZM129.44 156.227H145.086V158.431H129.44V156.227ZM138.106 162.23L139.775 160.832C141.695 162.23 144.458 164.291 145.768 165.724L143.938 167.373C142.753 165.957 140.098 163.753 138.106 162.23ZM137.388 157.033L139.793 157.875C137.747 161.656 134.482 165.312 130.355 167.462C130.014 166.889 129.332 165.993 128.884 165.509C132.723 163.699 135.899 160.223 137.388 157.033ZM136.079 161.37L138.447 159.022V171.817H136.079V161.37ZM157.144 166.62H165.523V168.143H157.144V166.62ZM156.731 158.09H165.702V159.649H156.731V158.09ZM160.302 156.818H162.239V169.667H160.302V156.818ZM156.641 169.469C158.866 169.308 162.293 169.057 165.523 168.771L165.541 170.401C162.491 170.724 159.225 171.046 156.892 171.261L156.641 169.469ZM158.92 163.753V164.577H163.657V163.753H158.92ZM158.92 161.692V162.499H163.657V161.692H158.92ZM157.197 160.348H165.433V165.921H157.197V160.348ZM164.554 155.116L165.505 156.728C163.208 157.194 159.943 157.463 157.251 157.517C157.179 157.087 156.982 156.406 156.785 155.994C159.458 155.868 162.58 155.546 164.554 155.116ZM165.702 159.076H171.911V161.047H165.702V159.076ZM171.049 159.076H173.113C173.113 159.076 173.095 159.775 173.095 160.026C172.933 167.409 172.79 170.025 172.198 170.831C171.803 171.441 171.39 171.638 170.798 171.745C170.242 171.853 169.399 171.853 168.555 171.817C168.501 171.226 168.268 170.348 167.927 169.774C168.699 169.846 169.381 169.846 169.739 169.846C170.009 169.846 170.188 169.792 170.35 169.541C170.762 169.004 170.906 166.477 171.049 159.542V159.076ZM167.425 155.331H169.488C169.47 162.982 169.452 168.735 165.308 171.996C165.003 171.476 164.303 170.742 163.818 170.383C167.604 167.498 167.407 162.481 167.425 155.331ZM186.947 160.85H201.104V162.57H186.947V160.85ZM185.744 156.244H200.224V157.911H185.744V156.244ZM190.123 163.968H200.063V165.635H190.123V163.968ZM189.818 166.781H199.525V168.43H189.818V166.781ZM188.274 169.792H200.96V171.53H188.274V169.792ZM191.755 155.044H193.908V157.553H191.755V155.044ZM193.586 162.785H195.703V170.437H193.586V162.785ZM185.87 160.85H187.969V163.86C187.969 166.244 187.646 169.81 185.96 172.086C185.619 171.692 184.722 170.975 184.273 170.724C185.727 168.699 185.87 165.85 185.87 163.843V160.85ZM190.087 162.588L191.971 163.036C191.432 164.559 190.517 166.065 189.548 167.014C189.19 166.692 188.418 166.136 187.951 165.885C188.884 165.079 189.656 163.843 190.087 162.588ZM188.221 158.628L189.566 157.624C192.437 158.234 196.115 159.309 198.304 160.079L196.995 161.19C194.913 160.366 191.199 159.255 188.221 158.628ZM196.259 157.373L197.694 158.144C195.398 159.631 191.54 160.689 188.31 161.226C188.167 160.868 187.79 160.259 187.557 159.936C190.607 159.488 194.483 158.538 196.259 157.373ZM212.695 157.194H228.7V159.201H212.695V157.194ZM217.539 163.645H225.344V165.437H217.539V163.645ZM215.942 160.617H225.021V162.499H218.078V171.835H215.942V160.617ZM224.591 160.617H226.69V169.523C226.69 170.58 226.493 171.172 225.757 171.512C225.039 171.835 224.017 171.853 222.563 171.853C222.474 171.261 222.186 170.348 221.899 169.792C222.832 169.846 223.891 169.828 224.196 169.828C224.483 169.828 224.591 169.738 224.591 169.487V160.617ZM218.257 155.008L220.482 155.51C219.226 159.56 217.073 163.681 213.574 166.118C213.269 165.635 212.587 164.864 212.156 164.452C215.35 162.355 217.36 158.502 218.257 155.008ZM217.539 166.602H225.344V168.394H217.539V166.602ZM248.598 159.112H254.789V160.868H248.598V159.112ZM245.512 169.487C247.145 169.254 249.657 168.806 252.061 168.376L252.223 170.24C250.141 170.724 247.934 171.208 246.23 171.584L245.512 169.487ZM247.378 155.832H249.478V169.989H247.378V155.832ZM248.598 155.832H255.758V164.201H248.598V162.355H253.64V157.678H248.598V155.832ZM252.348 162.982C252.994 166.172 254.376 168.824 257.014 169.989C256.547 170.401 255.919 171.244 255.614 171.799C252.725 170.276 251.326 167.229 250.554 163.269L252.348 162.982ZM254.932 164.326L256.619 165.509C255.632 166.441 254.484 167.444 253.586 168.09L252.241 167.05C253.102 166.351 254.268 165.222 254.932 164.326ZM240.847 155.796H245.333V157.714H242.857V171.871H240.847V155.796ZM244.741 155.796H245.117L245.422 155.725L246.876 156.567C246.391 158.126 245.745 160.115 245.189 161.513C246.373 162.911 246.607 164.147 246.607 165.187C246.607 166.387 246.338 167.14 245.745 167.552C245.458 167.767 245.099 167.892 244.687 167.946C244.346 168 243.879 168 243.449 167.982C243.431 167.444 243.269 166.602 242.964 166.065C243.305 166.1 243.556 166.1 243.79 166.1C243.987 166.083 244.166 166.047 244.328 165.939C244.561 165.778 244.651 165.42 244.651 164.918C244.651 164.076 244.382 162.964 243.323 161.746C243.843 160.133 244.454 157.588 244.741 156.442V155.796ZM274.526 161.567L277.11 162.194C275.925 165.007 274.328 168.161 273.001 170.222L271.009 169.595C272.301 167.427 273.754 164.129 274.526 161.567ZM268.928 168.932C272.319 168.824 277.576 168.573 282.277 168.34L282.223 170.437C277.612 170.76 272.624 171.028 269.215 171.208L268.928 168.932ZM278.007 165.527L280.106 164.559C281.685 166.495 283.372 169.039 284.233 170.76L282.008 171.942C281.254 170.222 279.514 167.498 278.007 165.527ZM272.624 155.438L275.082 156.119C273.934 158.95 272.05 161.728 270.219 163.448C269.753 163 268.712 162.212 268.12 161.853C269.986 160.384 271.691 157.929 272.624 155.438ZM279.855 155.456C280.913 157.571 282.959 160.079 284.61 161.585C284.018 162.033 283.192 162.893 282.779 163.466C281.093 161.656 279.029 158.825 277.702 156.334L279.855 155.456ZM296.578 156.101H309.927V158.144H296.578V156.101ZM296.739 159.434H307.361V161.298H296.739V159.434ZM309.173 156.101H311.38V169.129C311.38 170.365 311.165 171.028 310.394 171.405C309.64 171.763 308.51 171.817 306.877 171.817C306.805 171.172 306.482 170.097 306.177 169.487C307.2 169.541 308.366 169.541 308.725 169.523C309.048 169.523 309.173 169.434 309.173 169.093V156.101ZM297.672 162.624H299.771V170.025H297.672V162.624ZM299.538 162.624H306.428V168.717H299.538V166.871H304.311V164.488H299.538V162.624Z" fill="#0F3C7F"/>
</svg>
