<svg width="280" height="175" viewBox="0 0 280 175" fill="none" xmlns="http://www.w3.org/2000/svg">
<path d="M138 73L73 12" stroke="#DB0414" stroke-width="14" stroke-linecap="round"/>
<path d="M73 12L7 73" stroke="#DB0414" stroke-width="14" stroke-linecap="round"/>
<path d="M7 73V167" stroke="#DB0414" stroke-width="14" stroke-linecap="round"/>
<path d="M7 167.5H121.5" stroke="#DB0414" stroke-width="14" stroke-linecap="round"/>
<path d="M109 0L128 11.117V55H109V0Z" fill="#DB0414"/>
<path d="M53.296 105.968V123.632H47.68V111.296H42.064V105.968H53.296ZM53.296 121.136C55.216 124.304 58.864 125.696 63.856 125.888C69.472 126.128 80.368 125.984 86.848 125.456C86.224 126.8 85.264 129.584 85.024 131.312C79.216 131.6 69.52 131.696 63.76 131.456C57.856 131.216 53.872 129.824 50.752 126.08C48.64 127.952 46.48 129.776 43.888 131.888L41.056 125.888C43.216 124.544 45.808 122.864 48.016 121.136H53.296ZM42.16 91.808L46.432 88.352C49.312 90.368 52.816 93.392 54.496 95.648L49.888 99.44C48.448 97.184 44.992 93.968 42.16 91.808ZM62.224 103.232V107.408H78.208V103.232H62.224ZM56.896 98.816H83.824V111.776H56.896V98.816ZM55.408 91.424H85.456V96.224H55.408V91.424ZM67.264 87.296H72.832V124.592H67.264V87.296ZM65.728 110.288L69.904 111.776C67.216 116.72 62.56 121.376 57.712 123.824C56.944 122.48 55.264 120.464 54.064 119.456C58.624 117.632 63.328 113.984 65.728 110.288ZM73.504 110.24C76.288 113.792 81.52 117.344 86.176 119.168C84.88 120.272 83.152 122.288 82.288 123.68C77.632 121.232 72.544 116.48 69.568 111.92L73.504 110.24ZM116.704 104H130.048V109.52H116.704V104ZM113.92 104H119.632V124.016C119.632 126.032 119.92 126.32 121.792 126.32C122.608 126.32 126.16 126.32 127.168 126.32C128.992 126.32 129.328 125.168 129.568 118.736C130.816 119.696 133.264 120.704 134.8 121.088C134.176 129.248 132.688 131.696 127.648 131.696C126.496 131.696 122.032 131.696 120.928 131.696C115.6 131.696 113.92 130.016 113.92 124.064V104ZM113.728 89.456H132.928V112.496H127.36V94.976H113.728V89.456ZM90.88 97.952H111.04V131.36H106.48V102.704H95.296V132.032H90.88V97.952ZM93.28 117.248H108.64V121.232H93.28V117.248ZM93.28 124.544H108.64V129.008H93.28V124.544ZM90.016 88.976H112V94.064H90.016V88.976ZM96.448 90.128H100.24V101.696H96.448V90.128ZM102.16 90.128H106V101.696H102.16V90.128ZM97.408 101.648H100.048V106.496C100.048 109.232 99.568 112.784 97.312 115.28C96.88 114.752 95.824 113.792 95.2 113.456C97.168 111.344 97.408 108.704 97.408 106.448V101.648ZM101.68 101.648H104.368V110.48C104.368 111.104 104.416 111.2 104.752 111.2C104.896 111.2 105.424 111.2 105.568 111.2C106.048 111.2 106.144 111.152 106.24 111.008C106.768 111.488 107.872 111.872 108.688 112.112C108.352 113.456 107.536 113.984 106.048 113.984C105.664 113.984 104.8 113.984 104.416 113.984C102.304 113.984 101.68 113.36 101.68 110.528V101.648ZM142.912 96.656H148.576V107.504C148.576 114.848 147.616 125.264 141.904 131.792C140.896 130.832 138.4 129.2 136.96 128.624C142.384 122.576 142.912 113.84 142.912 107.456V96.656ZM145.888 96.656H177.472V108.032H145.888V103.856H171.808V100.832H145.888V96.656ZM139.744 89.456H180.4V94.592H139.744V89.456ZM145.456 110.96H181.6V115.472H145.456V110.96ZM158.608 118.208H172.96V122.576H158.608V118.208ZM159.28 107.504H164.992V113.264H159.28V107.504ZM171.76 118.208H177.472C177.472 118.208 177.424 119.552 177.328 120.176C176.848 126.512 176.176 129.488 174.976 130.784C173.92 131.84 172.672 132.176 171.184 132.32C169.84 132.464 167.392 132.464 164.8 132.368C164.704 130.928 164.128 128.912 163.312 127.616C165.472 127.808 167.632 127.856 168.544 127.856C169.312 127.856 169.744 127.76 170.224 127.376C170.896 126.752 171.376 124.4 171.76 118.88V118.208ZM156.592 113.504H162.304C161.488 122.432 159.28 128.816 147.808 132.32C147.28 130.976 145.84 128.912 144.688 127.856C154.576 125.216 155.92 120.32 156.592 113.504ZM190.576 89.456H196.384V103.376C196.384 111.824 195.616 124.4 190.528 132.32C189.424 131.36 186.88 129.92 185.392 129.344C190.192 121.952 190.576 111.056 190.576 103.376V89.456ZM193.792 89.456H227.248V101.744H193.792V97.088H221.44V94.112H193.792V89.456ZM195.328 103.856H228.496V108.368H195.328V103.856ZM197.632 118.784H226.144V123.344H197.632V118.784ZM194.368 126.656H229.6V131.168H194.368V126.656ZM208.96 115.184H214.576V129.728H208.96V115.184ZM196.672 112.016C203.392 111.872 213.76 111.584 223.552 111.2L223.408 115.376C213.904 115.856 203.824 116.24 196.912 116.48L196.672 112.016ZM205.408 104.864L211.264 106.784C209.152 109.808 206.896 113.072 205.12 115.184L200.656 113.408C202.336 111.104 204.352 107.504 205.408 104.864ZM214.912 109.616L219.328 106.928C222.592 109.136 226.864 112.496 228.88 114.896L224.128 117.872C222.256 115.52 218.224 112.016 214.912 109.616ZM261.856 106.592H266.704V111.824H261.856V106.592ZM266.848 95.168L271.216 96.464C270.112 98.72 269.104 101.264 268.288 102.896L265.024 101.792C265.696 99.92 266.512 97.136 266.848 95.168ZM257.92 96.656L261.328 95.456C262.288 97.376 263.056 99.92 263.296 101.552L259.6 102.896C259.456 101.216 258.736 98.576 257.92 96.656ZM251.44 89.312H273.856V94.304H256.576V132.416H251.44V89.312ZM272.128 89.312H277.312V126.656C277.312 129.248 276.832 130.592 275.248 131.456C273.616 132.224 271.312 132.368 267.952 132.368C267.808 131.024 267.088 128.816 266.416 127.472C268.384 127.568 270.544 127.568 271.216 127.568C271.888 127.52 272.128 127.28 272.128 126.608V89.312ZM257.776 102.464H270.832V106.736H257.776V102.464ZM257.632 110.528H270.928V114.848H257.632V110.528ZM259.216 112.784H264.016V119.12C264.016 120.272 264.112 120.656 264.736 120.656C265.312 120.656 267.376 120.656 267.952 120.656C268.624 120.656 269.776 120.56 270.4 120.368C270.496 121.616 270.64 123.728 270.784 124.832C270.064 125.12 269.056 125.168 268 125.168C267.376 125.168 265.312 125.168 264.784 125.168C260.176 125.168 259.216 123.584 259.216 119.072V112.784ZM240.592 87.296L245.584 89.024C243.616 92.768 241.408 97.04 239.584 99.728L235.744 98.144C237.424 95.264 239.488 90.608 240.592 87.296ZM246.016 92.96L250.672 95.12C247.168 100.496 242.512 107.168 238.816 111.296L235.504 109.424C239.104 105.104 243.472 98.096 246.016 92.96ZM233.152 98.48L235.984 94.64C238.48 96.896 241.408 100.016 242.56 102.272L239.44 106.688C238.384 104.336 235.552 100.928 233.152 98.48ZM244.384 104.48L248.368 102.8C250.288 106.064 252.112 110.288 252.688 113.024L248.368 114.992C247.84 112.208 246.16 107.792 244.384 104.48ZM233.008 108.32C237.328 108.08 243.52 107.744 249.52 107.36L249.568 112.064C243.952 112.496 238.096 112.928 233.632 113.264L233.008 108.32ZM245.68 116.528L249.712 115.28C250.864 117.968 251.824 121.472 252.16 123.776L247.888 125.168C247.648 122.816 246.736 119.264 245.68 116.528ZM235.072 115.472L239.68 116.24C239.2 120.848 238.192 125.6 236.8 128.672C235.84 128.048 233.728 127.136 232.624 126.656C233.968 123.824 234.688 119.504 235.072 115.472ZM240.352 110.864H245.296V132.32H240.352V110.864Z" fill="#004CBD"/>
<path d="M40.896 142.72H55.136V144.704H40.896V142.72ZM49.104 143.52C50.064 147.184 52.096 150.224 55.488 151.568C55.008 152 54.368 152.832 54.048 153.392C50.384 151.68 48.384 148.368 47.168 143.968L49.104 143.52ZM46.896 138.416H49.008C48.928 143.296 48.896 150.08 42.032 153.392C41.728 152.864 41.136 152.176 40.576 151.76C47.136 148.832 46.848 142.752 46.896 138.416ZM66.704 139.952H78.896V141.904H66.704V139.952ZM67.808 145.104H77.616V147.04H67.808V145.104ZM65.792 150.512H79.744V152.48H65.792V150.512ZM93.984 144.656V150.544H92.16V146.432H90.112V144.656H93.984ZM93.984 149.792C94.624 150.864 95.728 151.312 97.376 151.376C99.28 151.472 103.088 151.424 105.296 151.248C105.088 151.68 104.8 152.56 104.704 153.12C102.72 153.216 99.312 153.248 97.344 153.152C95.424 153.072 94.144 152.608 93.184 151.376C92.448 152 91.696 152.624 90.784 153.296L89.904 151.392C90.656 150.96 91.552 150.384 92.32 149.792H93.984ZM90.336 139.984L91.664 138.752C92.656 139.424 93.904 140.464 94.48 141.232L93.04 142.608C92.528 141.84 91.328 140.72 90.336 139.984ZM96.816 141.52L98.032 140.496C99.456 140.992 101.472 141.856 102.56 142.48L101.248 143.616C100.272 143.008 98.288 142.096 96.816 141.52ZM95.36 142.432H103.504V143.824H97.168V150.72H95.36V142.432ZM102.608 142.432H104.432V149.056C104.432 149.84 104.304 150.24 103.776 150.496C103.28 150.768 102.576 150.768 101.616 150.768C101.552 150.304 101.344 149.68 101.136 149.264C101.648 149.28 102.208 149.28 102.368 149.28C102.56 149.28 102.608 149.216 102.608 149.04V142.432ZM95.504 138.944H103.136V140.4H95.504V138.944ZM96.368 144.688H103.232V146.016H96.368V144.688ZM96.368 146.928H103.232V148.32H96.368V146.928ZM99.008 143.088H100.72V150.656H99.008V143.088ZM102.448 138.944H102.88L103.264 138.848L104.4 139.776C103.264 140.832 101.68 141.968 100.208 142.672C99.984 142.352 99.52 141.856 99.248 141.6C100.448 141.024 101.84 140.016 102.448 139.28V138.944ZM115.424 139.488H129.376V141.456H115.424V139.488ZM123.152 144.848L124.64 143.6C126.352 144.848 128.816 146.688 129.984 147.968L128.352 149.44C127.296 148.176 124.928 146.208 123.152 144.848ZM122.512 140.208L124.656 140.96C122.832 144.336 119.92 147.6 116.24 149.52C115.936 149.008 115.328 148.208 114.928 147.776C118.352 146.16 121.184 143.056 122.512 140.208ZM121.344 144.08L123.456 141.984V153.408H121.344V144.08ZM140.128 148.768H147.6V150.128H140.128V148.768ZM139.76 141.152H147.76V142.544H139.76V141.152ZM142.944 140.016H144.672V151.488H142.944V140.016ZM139.68 151.312C141.664 151.168 144.72 150.944 147.6 150.688L147.616 152.144C144.896 152.432 141.984 152.72 139.904 152.912L139.68 151.312ZM141.712 146.208V146.944H145.936V146.208H141.712ZM141.712 144.368V145.088H145.936V144.368H141.712ZM140.176 143.168H147.52V148.144H140.176V143.168ZM146.736 138.496L147.584 139.936C145.536 140.352 142.624 140.592 140.224 140.64C140.16 140.256 139.984 139.648 139.808 139.28C142.192 139.168 144.976 138.88 146.736 138.496ZM147.76 142.032H153.296V143.792H147.76V142.032ZM152.528 142.032H154.368C154.368 142.032 154.352 142.656 154.352 142.88C154.208 149.472 154.08 151.808 153.552 152.528C153.2 153.072 152.832 153.248 152.304 153.344C151.808 153.44 151.056 153.44 150.304 153.408C150.256 152.88 150.048 152.096 149.744 151.584C150.432 151.648 151.04 151.648 151.36 151.648C151.6 151.648 151.76 151.6 151.904 151.376C152.272 150.896 152.4 148.64 152.528 142.448V142.032ZM149.296 138.688H151.136C151.12 145.52 151.104 150.656 147.408 153.568C147.136 153.104 146.512 152.448 146.08 152.128C149.456 149.552 149.28 145.072 149.296 138.688ZM166.704 143.616H179.328V145.152H166.704V143.616ZM165.632 139.504H178.544V140.992H165.632V139.504ZM169.536 146.4H178.4V147.888H169.536V146.4ZM169.264 148.912H177.92V150.384H169.264V148.912ZM167.888 151.6H179.2V153.152H167.888V151.6ZM170.992 138.432H172.912V140.672H170.992V138.432ZM172.624 145.344H174.512V152.176H172.624V145.344ZM165.744 143.616H167.616V146.304C167.616 148.432 167.328 151.616 165.824 153.648C165.52 153.296 164.72 152.656 164.32 152.432C165.616 150.624 165.744 148.08 165.744 146.288V143.616ZM169.504 145.168L171.184 145.568C170.704 146.928 169.888 148.272 169.024 149.12C168.704 148.832 168.016 148.336 167.6 148.112C168.432 147.392 169.12 146.288 169.504 145.168ZM167.84 141.632L169.04 140.736C171.6 141.28 174.88 142.24 176.832 142.928L175.664 143.92C173.808 143.184 170.496 142.192 167.84 141.632ZM175.008 140.512L176.288 141.2C174.24 142.528 170.8 143.472 167.92 143.952C167.792 143.632 167.456 143.088 167.248 142.8C169.968 142.4 173.424 141.552 175.008 140.512ZM189.664 140.352H203.936V142.144H189.664V140.352ZM193.984 146.112H200.944V147.712H193.984V146.112ZM192.56 143.408H200.656V145.088H194.464V153.424H192.56V143.408ZM200.272 143.408H202.144V151.36C202.144 152.304 201.968 152.832 201.312 153.136C200.672 153.424 199.76 153.44 198.464 153.44C198.384 152.912 198.128 152.096 197.872 151.6C198.704 151.648 199.648 151.632 199.92 151.632C200.176 151.632 200.272 151.552 200.272 151.328V143.408ZM194.624 138.4L196.608 138.848C195.488 142.464 193.568 146.144 190.448 148.32C190.176 147.888 189.568 147.2 189.184 146.832C192.032 144.96 193.824 141.52 194.624 138.4ZM193.984 148.752H200.944V150.352H193.984V148.752ZM221.68 142.064H227.2V143.632H221.68V142.064ZM218.928 151.328C220.384 151.12 222.624 150.72 224.768 150.336L224.912 152C223.056 152.432 221.088 152.864 219.568 153.2L218.928 151.328ZM220.592 139.136H222.464V151.776H220.592V139.136ZM221.68 139.136H228.064V146.608H221.68V144.96H226.176V140.784H221.68V139.136ZM225.024 145.52C225.6 148.368 226.832 150.736 229.184 151.776C228.768 152.144 228.208 152.896 227.936 153.392C225.36 152.032 224.112 149.312 223.424 145.776L225.024 145.52ZM227.328 146.72L228.832 147.776C227.952 148.608 226.928 149.504 226.128 150.08L224.928 149.152C225.696 148.528 226.736 147.52 227.328 146.72ZM214.768 139.104H218.768V140.816H216.56V153.456H214.768V139.104ZM218.24 139.104H218.576L218.848 139.04L220.144 139.792C219.712 141.184 219.136 142.96 218.64 144.208C219.696 145.456 219.904 146.56 219.904 147.488C219.904 148.56 219.664 149.232 219.136 149.6C218.88 149.792 218.56 149.904 218.192 149.952C217.888 150 217.472 150 217.088 149.984C217.072 149.504 216.928 148.752 216.656 148.272C216.96 148.304 217.184 148.304 217.392 148.304C217.568 148.288 217.728 148.256 217.872 148.16C218.08 148.016 218.16 147.696 218.16 147.248C218.16 146.496 217.92 145.504 216.976 144.416C217.44 142.976 217.984 140.704 218.24 139.68V139.104ZM244.8 144.256L247.104 144.816C246.048 147.328 244.624 150.144 243.44 151.984L241.664 151.424C242.816 149.488 244.112 146.544 244.8 144.256ZM239.808 150.832C242.832 150.736 247.52 150.512 251.712 150.304L251.664 152.176C247.552 152.464 243.104 152.704 240.064 152.864L239.808 150.832ZM247.904 147.792L249.776 146.928C251.184 148.656 252.688 150.928 253.456 152.464L251.472 153.52C250.8 151.984 249.248 149.552 247.904 147.792ZM243.104 138.784L245.296 139.392C244.272 141.92 242.592 144.4 240.96 145.936C240.544 145.536 239.616 144.832 239.088 144.512C240.752 143.2 242.272 141.008 243.104 138.784ZM249.552 138.8C250.496 140.688 252.32 142.928 253.792 144.272C253.264 144.672 252.528 145.44 252.16 145.952C250.656 144.336 248.816 141.808 247.632 139.584L249.552 138.8ZM264.464 139.376H276.368V141.2H264.464V139.376ZM264.608 142.352H274.08V144.016H264.608V142.352ZM275.696 139.376H277.664V151.008C277.664 152.112 277.472 152.704 276.784 153.04C276.112 153.36 275.104 153.408 273.648 153.408C273.584 152.832 273.296 151.872 273.024 151.328C273.936 151.376 274.976 151.376 275.296 151.36C275.584 151.36 275.696 151.28 275.696 150.976V139.376ZM265.44 145.2H267.312V151.808H265.44V145.2ZM267.104 145.2H273.248V150.64H267.104V148.992H271.36V146.864H267.104V145.2Z" fill="#0F3C7F"/>
</svg>
